<svg width="175" height="171" viewBox="0 0 175 171" fill="none" xmlns="http://www.w3.org/2000/svg">
<path d="M173.758 85.0069C173.758 131.377 135.111 169.014 87.3792 169.014C39.6471 169.014 1 131.377 1 85.0069C1 38.6369 39.6471 1 87.3792 1C135.111 1 173.758 38.6369 173.758 85.0069Z" fill="#D3D2F8" stroke="#0004E7" stroke-width="2"/>
<path d="M79.6007 13.0308C75.9442 13.6613 71.5651 15.4585 67.6486 17.9283C57.767 24.1926 51.0635 35.5909 49.7861 48.2639C49.307 52.8846 50.0955 60.1285 51.5856 64.9721C54.6868 75.0854 60.0573 83.3804 68.7429 91.4489C70.5324 93.1298 73.9704 96.29 76.3429 98.4864C82.9979 104.672 87.9245 110.209 90.9818 114.939C93.1541 118.302 92.7521 117.988 94.4597 117.651C104.927 115.58 110.632 113.446 117.983 108.888C121.036 107.002 120.976 107.114 120.11 105.23C119.607 104.087 116.832 99.8497 114.74 96.9802C112.93 94.5143 107.481 88.4398 105.269 86.4227C104.545 85.7503 102.374 83.6659 100.443 81.7383C91.9384 73.3557 88.0569 68.267 85.3602 61.9664C83.8307 58.4012 82.9437 54.0058 82.9409 49.9013C82.9403 48.9818 82.8593 48.1071 82.7789 47.995C82.6984 47.8605 82.0551 47.3002 81.3313 46.7175C77.1497 43.4458 74.313 38.1321 73.7869 32.615C73.6048 30.7984 73.9842 27.2768 74.4857 25.9756C74.8066 25.168 75.7704 24.1132 75.9715 24.3597C76.0117 24.4046 75.9318 25.1448 75.7717 26.0196C74.7709 31.8293 76.8247 38.1304 81.4295 43.2859C83.4805 45.5947 85.1893 46.8271 89.6717 49.2464C96.0435 52.6737 101.39 54.8008 105.751 55.6277C108.082 56.0972 112.803 55.9594 113.928 55.4204C114.651 55.0834 114.692 55.0834 114.993 55.5542C115.476 56.3165 116.262 59.4335 116.525 61.6538C117.009 65.7355 116.45 69.9973 114.785 75.0673C114.384 76.2788 114.104 77.3107 114.164 77.3779C114.305 77.5348 116.813 73.0025 117.576 71.2526C117.957 70.3776 118.418 68.9867 118.639 68.1791C118.839 67.3716 119.06 66.6985 119.12 66.7209C119.522 66.7655 123.444 73.0653 124.893 76.0025C125.255 76.7424 125.557 77.2805 125.557 77.1908C125.557 77.1011 125.033 75.2847 124.369 73.1544C123.644 70.7551 122.597 67.9522 121.651 65.8445C120.746 63.8265 119.981 61.8085 119.799 60.9114C119.275 58.3325 118.469 55.6416 118.007 54.7896L117.544 53.9825L118.649 53.0173C121.179 50.7503 122.342 48.0356 122.34 44.3798C122.358 42.0696 122.036 40.5895 120.929 37.6521C119.842 34.8044 119.559 33.0327 119.9 31.3503C120.521 28.3893 119.997 26.2365 118.167 24.3089C116.217 22.2468 114.307 21.7322 113.042 22.8993C112.701 23.236 112.279 23.8194 112.119 24.2008L111.838 24.8739L111.938 23.9766C111.998 23.4832 112.098 22.4514 112.157 21.6888L112.297 20.2981L111.232 19.9624C109.946 19.5147 110.046 19.5146 110.047 20.0529C110.047 20.2996 109.967 20.5015 109.846 20.5016C109.745 20.5017 109.645 20.412 109.645 20.2999C109.645 19.9635 106.468 17.8124 104.298 16.67C100.901 14.9005 95.6955 13.2442 92.4 12.8876C89.4862 12.5756 81.7303 12.6481 79.6007 13.0308ZM98.2934 21.9897C99.9818 22.796 103.359 25.1263 104.626 26.359L105.53 27.2331L104.686 26.8973C104.224 26.7406 103.118 26.0685 102.214 25.4411C97.5299 22.0799 93.33 21.4323 89.6543 23.4758L88.8509 23.9249L89.4532 23.2068C90.7181 21.7032 92.2247 21.1639 94.877 21.2518C96.5649 21.318 97.1075 21.4522 98.2934 21.9897ZM95.4651 29.1688C96.0479 29.3927 96.8722 29.9977 97.5759 30.7374C98.5411 31.7236 98.9031 32.3289 99.7082 34.2797L100.674 36.6565L100.132 37.5091C99.3295 38.8329 97.803 39.6863 96.296 39.6649C94.8292 39.6434 93.8241 39.1058 92.6578 37.7384C91.6122 36.528 91.1896 35.5863 91.0279 34.1958C90.765 31.7064 91.427 30.0686 93.074 29.2377C94.0583 28.7211 94.2592 28.721 95.4651 29.1688ZM83.5724 62.7301C83.9146 63.5149 84.4175 64.4566 84.679 64.8601C85.3427 65.8465 85.2826 66.0036 84.5386 65.1742C84.1967 64.7932 83.7946 64.4794 83.654 64.4795C83.4932 64.4796 83.3123 64.3676 83.2319 64.2107C83.1313 64.0537 83.1715 64.0313 83.3524 64.1433C83.5333 64.2553 83.5735 64.2329 83.4729 64.0535C83.3924 63.919 83.2316 63.8742 83.1111 63.9416C83.0107 64.009 82.5282 63.6728 82.0657 63.1573C81.3218 62.3504 81.1207 62.2384 80.6185 62.3733C79.6542 62.6206 80.1764 62.2839 81.462 61.812C82.1049 61.5648 82.7075 61.3626 82.7879 61.3625C82.8682 61.34 83.2303 61.9678 83.5724 62.7301ZM79.8752 62.5981C79.815 62.6654 79.6342 62.6879 79.4935 62.6207C79.3327 62.5536 79.3929 62.4862 79.6139 62.4861C79.8349 62.4635 79.9555 62.5307 79.8752 62.5981ZM86.2278 67.2365C86.1475 67.3936 86.0671 67.3712 86.0067 67.1694C85.9463 66.99 85.7652 66.6313 85.5842 66.3847C85.363 66.0708 85.4233 66.0932 85.8053 66.4742C86.1069 66.7656 86.288 67.1243 86.2278 67.2365ZM89.9486 72.5048C90.7931 73.4686 91.9794 74.6117 92.5423 75.0599L93.6078 75.8442L92.8646 76.226C92.262 76.5404 92.1816 76.5629 92.3824 76.2711C92.5229 76.0916 92.583 75.7552 92.5225 75.5309C92.3413 74.9703 90.8134 73.805 90.1905 73.783C89.9092 73.7608 89.4872 73.6489 89.246 73.4921C89.0047 73.3353 88.5827 73.2234 88.3014 73.2236C88.0402 73.2238 87.7789 73.1342 87.7387 73.0221C87.7185 72.9324 86.9348 72.7984 86.0305 72.7317C84.9656 72.6651 84.4231 72.7103 84.5035 72.8449C84.584 72.9794 84.4836 73.0243 84.2826 72.9347C84.0816 72.8451 83.8203 72.778 83.7199 72.7781C83.5993 72.7782 83.539 72.7334 83.5992 72.666C83.6795 72.5763 88.1591 70.779 88.3399 70.7564C88.3801 70.7564 89.104 71.5409 89.9486 72.5048ZM97.1874 80.4396C99.3386 82.2325 100.042 82.9049 99.6002 82.7258C99.3992 82.6586 99.2383 82.5017 99.2383 82.3896C99.2382 82.2774 99.1377 82.1878 99.0372 82.1878C98.9166 82.1879 98.5749 81.9863 98.2734 81.7398C97.7707 81.3364 97.3889 81.2694 94.5156 81.2489C92.2451 81.228 91.1601 81.296 90.8387 81.4981C90.5776 81.6553 90.3165 81.7451 90.2762 81.6779C90.2159 81.6331 90.8787 81.2513 91.7425 80.8695C92.6062 80.4652 93.711 79.9037 94.2131 79.6118C94.7152 79.3199 95.1973 79.0728 95.2978 79.0503C95.3982 79.0503 96.2426 79.6777 97.1874 80.4396ZM89.7942 81.9698C89.6335 82.082 89.4126 82.1943 89.292 82.1944C89.1915 82.1945 89.2317 82.0823 89.3923 81.9701C89.553 81.8578 89.794 81.7455 89.8945 81.7454C90.0151 81.7453 89.9549 81.8575 89.7942 81.9698ZM103.361 87.5678C103.301 87.7024 102.939 87.9494 102.598 88.1515C101.875 88.5781 101.975 88.3538 102.798 87.7701C103.481 87.2986 103.521 87.2761 103.361 87.5678ZM105.471 88.6205C105.471 88.8 104.708 88.2398 104.446 87.8811C104.265 87.6345 104.406 87.6793 104.828 88.0154C105.17 88.3067 105.471 88.5757 105.471 88.6205ZM101.654 88.6904C101.493 88.8027 101.272 88.915 101.152 88.915C101.051 88.9151 101.091 88.8029 101.252 88.6907C101.412 88.5784 101.654 88.4661 101.754 88.4661C101.875 88.466 101.814 88.5782 101.654 88.6904ZM99.8459 89.5888C99.6852 89.701 99.4643 89.8133 99.3437 89.8134C99.2433 89.8135 99.2834 89.7013 99.444 89.589C99.6047 89.4768 99.8458 89.3645 99.9462 89.3644C100.067 89.3643 100.007 89.4765 99.8459 89.5888Z" fill="url(#paint0_linear_16_46)"/>
<path d="M106.311 83.0352C105.87 83.1925 105.97 83.327 107.619 84.8062C110.273 87.2043 116.607 94.5118 118.578 97.4486C120.811 100.789 121.515 101.977 122.279 103.547L122.903 104.87L123.666 104.107C124.831 102.984 125.934 100.943 126.195 99.3948C126.375 98.3405 126.475 98.1386 126.636 98.4301C126.918 98.9906 126.879 101.211 126.578 102.243C126.238 103.432 125.676 104.307 123.969 106.416C121.018 110.074 115.615 113.51 108.303 116.43C104.306 118.025 96.9528 119.892 93.4367 120.208C92.4924 120.299 91.6887 120.389 91.6285 120.434C91.5682 120.456 90.6239 120.569 89.5188 120.66C88.4138 120.75 87.4494 120.863 87.3891 120.908C87.3088 120.953 85.2393 121.111 82.788 121.225C69.8887 121.929 58.4543 119.873 52.8255 115.84C50.4735 114.159 48.8444 111.917 48.5216 109.966C48.34 108.867 48.541 108.912 48.9436 110.033C49.8495 112.522 54.5129 115.3 60.2807 116.754C61.2252 116.978 63.2146 117.246 64.7015 117.312C67.796 117.467 67.9165 117.467 68.2985 117.736C68.9217 118.184 79.1292 118.491 79.5107 118.065C79.6512 117.907 79.9928 117.907 80.6359 118.109C81.4398 118.31 81.6206 118.31 81.8816 117.996C82.1427 117.704 82.3034 117.681 82.625 117.883C83.0873 118.152 89.276 118.08 89.537 117.789C89.7177 117.587 89.3355 116.981 87.3645 114.224C84.4684 110.189 78.6974 103.913 74.8172 100.551C70.2936 96.6513 65.0259 91.7878 63.6183 90.1963L62.07 88.4255L58.9959 88.6967C57.3283 88.8548 54.7767 89.2154 53.3302 89.508C51.9038 89.8005 50.3568 90.1156 49.9148 90.2056C46.1176 90.8586 38.5851 94.3625 35.7134 96.7867C32.9019 99.1661 29.55 104.596 28.3673 108.701C26.944 113.704 26.5468 120.5 27.414 125.322C27.9585 128.282 28.6228 130.008 30.4131 133.013C32.7868 137.026 35.0591 139.693 38.2959 142.315C41.2512 144.713 42.1357 145.273 45.7335 147.043C49.3515 148.812 51.4416 149.506 57.5911 150.87L62.6151 152.011L68.4423 152.208C71.6573 152.318 74.8521 152.361 75.5754 152.293C76.2987 152.248 78.3281 152.135 80.0962 152.066C83.6325 151.929 83.8937 151.884 86.5255 151.254C87.53 151.029 89.5592 150.669 91.0459 150.489C94.9839 149.993 95.2852 149.925 98.4796 149.25C101.212 148.665 106.556 147.361 107.399 147.068C107.661 146.979 107.721 147.023 107.621 147.248C107.5 147.45 107.54 147.495 107.781 147.382C108.043 147.27 108.083 147.382 107.983 148.077C107.723 150.074 106.559 151.488 102.703 154.428C97.3606 158.514 93.4637 160.311 85.689 162.29C83.5595 162.829 81.8117 163.369 81.8118 163.459C81.8119 163.571 83.1983 163.592 84.8861 163.501C93.325 163.114 102.346 161.247 109.075 158.528C113.474 156.754 120.966 152.554 124.601 149.838C128.437 146.965 133.477 141.892 135.203 139.132C135.705 138.325 136.648 136.956 137.271 136.103C137.893 135.228 138.716 133.77 139.117 132.85C139.518 131.93 140.582 130.157 141.465 128.923C143.232 126.477 145.399 121.968 145.98 119.5C147.082 114.744 146.796 107.859 145.346 103.509C143.796 98.9344 140.236 93.8679 136.718 91.2012C133.14 88.5122 127.733 85.802 124.457 85.0865C118.89 83.8566 116.599 83.4545 114.208 83.2766C109.627 82.9433 106.794 82.8555 106.311 83.0352ZM76.0139 117.125C75.5517 117.17 74.7279 117.171 74.2055 117.126C73.683 117.082 74.0648 117.059 75.0493 117.058C76.054 117.058 76.476 117.08 76.0139 117.125ZM78.8271 117.347C78.5659 117.392 78.1238 117.393 77.8224 117.348C77.5009 117.303 77.7219 117.258 78.2644 117.258C78.827 117.258 79.0681 117.302 78.8271 117.347ZM108.524 146.776C108.364 146.888 108.143 147.001 108.022 147.001C107.922 147.001 107.962 146.889 108.123 146.776C108.283 146.664 108.524 146.552 108.625 146.552C108.745 146.552 108.685 146.664 108.524 146.776Z" fill="url(#paint1_linear_16_46)"/>
<defs>
<linearGradient id="paint0_linear_16_46" x1="87.5668" y1="12.6919" x2="87.6376" y2="117.853" gradientUnits="userSpaceOnUse">
<stop stop-color="#002EE7"/>
<stop offset="1" stop-color="#8408EF"/>
</linearGradient>
<linearGradient id="paint1_linear_16_46" x1="86.7819" y1="82.9578" x2="86.8362" y2="163.556" gradientUnits="userSpaceOnUse">
<stop stop-color="#002EE7"/>
<stop offset="1" stop-color="#8408EF"/>
</linearGradient>
</defs>
</svg>
